<svg width="140" height="140" viewBox="0 0 140 140" fill="none" xmlns="http://www.w3.org/2000/svg">
<g clip-path="url(#clip0_56_65)">
<path d="M140 70C140 108.66 108.66 140 70 140C31.3401 140 0 108.66 0 70C0 31.3401 31.3401 0 70 0C108.66 0 140 31.3401 140 70Z" fill="#F19616"/>
<path d="M24 118V110.211H30.0694V78.7886H24V71H43C49.2014 71 53.9074 72.6114 57.1181 75.8343C60.3727 79.0124 62 83.7571 62 90.0686V98.9314C62 105.243 60.3727 110.01 57.1181 113.233C53.9074 116.411 49.2014 118 43 118H24ZM38.7778 109.943H43.1319C46.6505 109.943 49.2234 109.003 50.8507 107.123C52.478 105.243 53.2917 102.602 53.2917 99.2V89.8C53.2917 86.3533 52.478 83.7124 50.8507 81.8771C49.2234 79.9971 46.6505 79.0571 43.1319 79.0571H38.7778V109.943Z" fill="white"/>
<path d="M52 64V15H62.5426V36.605H63.2L81.1443 15H93.7809L75.2765 36.9399L94 64H81.3878L67.7287 43.8545L62.5426 50.0752V64H52Z" fill="white"/>
<path d="M127 71V72.3521C126.001 72.7127 124.934 73.5014 123.799 74.7183C122.709 75.9352 121.687 77.8282 120.733 80.3972L106.361 119C105.998 118.955 105.612 118.932 105.203 118.932C104.794 118.932 104.386 118.932 103.977 118.932C103.614 118.932 103.228 118.932 102.819 118.932C102.41 118.932 102.024 118.955 101.661 119L84.2913 76.6789C83.6556 75.0563 82.9517 73.9521 82.1797 73.3662C81.4077 72.7352 80.6812 72.3972 80 72.3521V71C81.3623 71.0451 82.9517 71.0901 84.7681 71.1352C86.6299 71.1803 88.4918 71.2028 90.3536 71.2028C92.4425 71.2028 94.3952 71.1803 96.2116 71.1352C98.0734 71.0901 99.572 71.0451 100.707 71V72.3521C99.2541 72.3972 98.1188 72.5775 97.3015 72.893C96.4841 73.1634 96.03 73.7042 95.9391 74.5155C95.8483 75.2817 96.1208 76.4535 96.7565 78.031L109.154 109.332L107.723 111.023L117.123 85.8732C118.349 82.493 118.985 79.8338 119.03 77.8958C119.076 75.9577 118.599 74.5606 117.6 73.7042C116.601 72.8479 115.171 72.3972 113.309 72.3521V71C114.853 71.0451 116.306 71.0901 117.668 71.1352C119.03 71.1803 120.415 71.2028 121.823 71.2028C122.822 71.2028 123.753 71.1803 124.616 71.1352C125.524 71.0901 126.319 71.0451 127 71Z" fill="white"/>
</g>
<defs>
<clipPath id="clip0_56_65">
<rect width="140" height="140" fill="white"/>
</clipPath>
</defs>
</svg>
